<svg width="30" height="30" viewBox="0 0 30 30" fill="none" xmlns="http://www.w3.org/2000/svg">
<path d="M23.75 3.75C24.413 3.75 25.0489 4.01339 25.5178 4.48223C25.9866 4.95107 26.25 5.58696 26.25 6.25V23.75C26.25 24.413 25.9866 25.0489 25.5178 25.5178C25.0489 25.9866 24.413 26.25 23.75 26.25H6.25C5.58696 26.25 4.95107 25.9866 4.48223 25.5178C4.01339 25.0489 3.75 24.413 3.75 23.75V6.25C3.75 5.58696 4.01339 4.95107 4.48223 4.48223C4.95107 4.01339 5.58696 3.75 6.25 3.75H11.475C12 2.3 13.375 1.25 15 1.25C16.625 1.25 18 2.3 18.525 3.75H23.75ZM15 3.75C14.6685 3.75 14.3505 3.8817 14.1161 4.11612C13.8817 4.35054 13.75 4.66848 13.75 5C13.75 5.33152 13.8817 5.64946 14.1161 5.88388C14.3505 6.1183 14.6685 6.25 15 6.25C15.3315 6.25 15.6495 6.1183 15.8839 5.88388C16.1183 5.64946 16.25 5.33152 16.25 5C16.25 4.66848 16.1183 4.35054 15.8839 4.11612C15.6495 3.8817 15.3315 3.75 15 3.75ZM8.75 8.75V6.25H6.25V23.75H23.75V6.25H21.25V8.75H8.75ZM15 11.25C15.663 11.25 16.2989 11.5134 16.7678 11.9822C17.2366 12.4511 17.5 13.087 17.5 13.75C17.5 14.413 17.2366 15.0489 16.7678 15.5178C16.2989 15.9866 15.663 16.25 15 16.25C14.337 16.25 13.7011 15.9866 13.2322 15.5178C12.7634 15.0489 12.5 14.413 12.5 13.75C12.5 13.087 12.7634 12.4511 13.2322 11.9822C13.7011 11.5134 14.337 11.25 15 11.25ZM10 21.25V20C10 18.625 12.2375 17.5 15 17.5C17.7625 17.5 20 18.625 20 20V21.25H10Z" fill="black"/>
</svg>
