<svg width="30" height="30" viewBox="0 0 30 30" fill="none" xmlns="http://www.w3.org/2000/svg">
<path d="M27.5 6.875H11.25C9.875 6.875 8.75 8 8.75 9.375V20.625C8.75 22.0125 9.875 23.125 11.25 23.125H27.5C28.8875 23.125 30 22.0125 30 20.625V9.375C30 8 28.8875 6.875 27.5 6.875ZM27.5 20.625H11.25V11.4625L19.375 15.625L27.5 11.4625V20.625ZM19.375 13.5125L11.25 9.375H27.5L19.375 13.5125ZM6.25 20.625C6.25 20.8375 6.2875 21.0375 6.3125 21.25H1.25C0.56 21.25 0 20.6875 0 20C0 19.3125 0.56 18.75 1.25 18.75H6.25V20.625ZM3.75 8.75H6.3125C6.2875 8.9625 6.25 9.1625 6.25 9.375V11.25H3.75C3.0625 11.25 2.5 10.6875 2.5 10C2.5 9.3125 3.0625 8.75 3.75 8.75ZM1.25 15C1.25 14.3125 1.8125 13.75 2.5 13.75H6.25V16.25H2.5C1.8125 16.25 1.25 15.6875 1.25 15Z" fill="black"/>
</svg>
